<svg width="32" height="32" viewBox="0 0 32 32" fill="none" xmlns="http://www.w3.org/2000/svg">
<path fill-rule="evenodd" clip-rule="evenodd" d="M7.47629 24.6292L14.6731 17.8072V14.4337H15.7976V17.4324H22.9944L22.6945 14.2088C22.6196 12.9344 22.9644 11.9898 25.8431 11.51L26.068 12.6345C25.4433 12.6595 24.1639 12.9944 24.0439 13.5341C23.924 14.0739 24.7436 21.1057 25.1684 24.5542L24.0439 25.004L23.2193 19.0067L16.9221 24.8541L16.4723 23.7296L21.9449 18.5569H15.7976V23.8795V26.1285H6.42676L7.47629 24.6292ZM14.6731 19.4565V23.8795V25.1539H8.45086L14.6731 19.4565Z" fill="#4878A6" stroke="#0E1821" stroke-width="0.480098" stroke-linecap="round" stroke-linejoin="round"/>
<circle cx="7.10126" cy="25.9036" r="5.38245" stroke="#0E1821" stroke-width="0.480098"/>
<path d="M12.4238 25.9038C12.4238 28.8434 10.0408 31.2264 7.1012 31.2264C4.16159 31.2264 1.77856 28.8434 1.77856 25.9038C1.77856 22.9642 4.16159 20.5812 7.1012 20.5812C10.0408 20.5812 12.4238 22.9642 12.4238 25.9038ZM3.20905 25.9038C3.20905 28.0534 4.95162 29.796 7.1012 29.796C9.25078 29.796 10.9934 28.0534 10.9934 25.9038C10.9934 23.7542 9.25078 22.0117 7.1012 22.0117C4.95162 22.0117 3.20905 23.7542 3.20905 25.9038Z" fill="#0E1821"/>
<circle cx="7.10126" cy="25.9036" r="5.38245" stroke="#0E1821" stroke-width="0.480098"/>
<circle cx="7.10141" cy="25.9035" r="3.73319" stroke="#0E1821" stroke-width="0.480098"/>
<circle cx="7.1014" cy="25.9036" r="1.33425" fill="#F15152" stroke="#0E1821" stroke-width="0.480098"/>
<path d="M30.2664 25.9038C30.2664 28.8434 27.8833 31.2264 24.9437 31.2264C22.0041 31.2264 19.6211 28.8434 19.6211 25.9038C19.6211 22.9642 22.0041 20.5812 24.9437 20.5812C27.8833 20.5812 30.2664 22.9642 30.2664 25.9038ZM21.0516 25.9038C21.0516 28.0534 22.7942 29.796 24.9437 29.796C27.0933 29.796 28.8359 28.0534 28.8359 25.9038C28.8359 23.7542 27.0933 22.0117 24.9437 22.0117C22.7942 22.0117 21.0516 23.7542 21.0516 25.9038Z" fill="#0E1821"/>
<circle cx="24.9435" cy="25.9036" r="5.38245" stroke="#0E1821" stroke-width="0.480098"/>
<circle cx="24.9437" cy="25.9035" r="3.73319" stroke="#0E1821" stroke-width="0.480098"/>
<circle cx="24.9439" cy="25.9036" r="1.33425" fill="#F15152" stroke="#0E1821" stroke-width="0.480098"/>
<circle cx="15.2731" cy="25.379" r="1.85902" fill="#2A5275" stroke="#0E1821" stroke-width="0.480098"/>
<line x1="15.2828" y1="25.389" x2="15.2828" y2="28.6674" stroke="#0E1821" stroke-width="0.320065" stroke-linecap="round"/>
<line x1="15.9326" y1="28.6176" x2="14.6135" y2="28.6176" stroke="#0E1821" stroke-width="0.480098" stroke-linecap="round"/>
<circle cx="26.9676" cy="11.7351" r="1.25928" fill="#F15152" stroke="#0E1821" stroke-width="0.480098"/>
<path d="M5.67725 9.78577V14.9627C5.67725 15.5814 6.17879 16.083 6.79747 16.083H14.8232" stroke="#0E1821" stroke-width="0.480098"/>
<circle cx="19.7709" cy="6.03737" r="5.15755" fill="white" stroke="#0E1821" stroke-width="0.480098"/>
<path d="M18.581 2.46062C18.5956 2.41108 18.6259 2.36759 18.6674 2.33666C18.7089 2.30573 18.7594 2.28903 18.8112 2.28906H20.7303C20.7682 2.28909 20.8057 2.29811 20.8395 2.31537C20.8733 2.33263 20.9025 2.35764 20.9247 2.38834C20.9469 2.41905 20.9615 2.45456 20.9672 2.49197C20.9729 2.52938 20.9697 2.56761 20.9577 2.60351L20.1037 5.15637H21.9296C21.9746 5.15634 22.0186 5.16887 22.0567 5.19254C22.0948 5.21622 22.1255 5.25007 22.1453 5.29026C22.165 5.33045 22.173 5.37536 22.1684 5.41987C22.1638 5.46438 22.1467 5.5067 22.1192 5.54202L18.7609 9.84298C18.7265 9.88725 18.6775 9.91809 18.6226 9.9301C18.5677 9.94211 18.5104 9.93454 18.4605 9.90871C18.4106 9.88288 18.3715 9.84043 18.3498 9.78876C18.3282 9.7371 18.3254 9.6795 18.342 9.62602L19.2061 6.82896H17.6118C17.5746 6.82898 17.5378 6.82034 17.5044 6.80373C17.4711 6.78711 17.442 6.76298 17.4197 6.73324C17.3973 6.70351 17.3823 6.66899 17.3756 6.63243C17.369 6.59587 17.371 6.55828 17.3816 6.52264L18.581 2.46062ZM18.9907 2.76695L17.9323 6.35108H19.5309C19.5684 6.35107 19.6054 6.35984 19.6389 6.37668C19.6725 6.39352 19.7015 6.41796 19.7239 6.44804C19.7462 6.47811 19.7611 6.51298 19.7674 6.54985C19.7737 6.58671 19.7712 6.62453 19.7602 6.66027L19.1854 8.52067L21.4393 5.63425H19.7707C19.7328 5.63422 19.6953 5.62521 19.6615 5.60795C19.6277 5.59069 19.5985 5.56568 19.5763 5.53497C19.5541 5.50427 19.5395 5.46875 19.5338 5.43134C19.5281 5.39393 19.5313 5.35571 19.5433 5.3198L20.3973 2.76695H18.9907Z" fill="#F15152"/>
<path d="M5.01739 8.82647H6.3365V9.45573C6.3365 9.5883 6.22902 9.69578 6.09645 9.69578H5.25744C5.12487 9.69578 5.01739 9.5883 5.01739 9.45573V8.82647Z" fill="#F15152" stroke="#0E1821" stroke-width="0.480098"/>
<path d="M4.26788 6.72735H7.08632V8.55607C7.08632 8.68865 6.97884 8.79612 6.84627 8.79612H4.50793C4.37535 8.79612 4.26788 8.68865 4.26788 8.55607V6.72735Z" fill="#F15152" stroke="#0E1821" stroke-width="0.480098"/>
<line x1="4.83734" y1="6.39716" x2="4.83734" y2="5.52786" stroke="#0E1821" stroke-width="0.480098" stroke-linecap="round"/>
<line x1="6.48676" y1="6.39716" x2="6.48676" y2="5.52786" stroke="#0E1821" stroke-width="0.480098" stroke-linecap="round"/>
<path d="M18.1966 14.3588H12.649C12.0493 14.2838 11.9171 14.0943 11.7495 13.759C11.5995 13.4592 11.6745 12.7845 11.8244 12.4846C12.005 12.1236 12.4242 11.8766 12.724 11.8099C13.3987 11.66 14.1484 11.8099 14.7481 12.1098C15.2223 12.3468 15.5985 12.9783 16.0226 13.0843C16.3224 13.1593 18.1216 13.1593 18.4215 13.3092C18.7214 13.4592 18.7963 14.1588 18.1966 14.3588Z" fill="white" stroke="#0E1821" stroke-width="0.480098" stroke-linecap="round" stroke-linejoin="round"/>
</svg>
