<svg width="32" height="32" viewBox="0 0 32 32" fill="none" xmlns="http://www.w3.org/2000/svg">
<g clip-path="url(#clip0_217_8855)">
<path d="M8.70581 22.7776C9.21748 23.0387 10.48 23.2518 11.4367 22.0147" stroke="black" stroke-width="0.48"/>
<rect x="9.93747" y="20.2207" width="11.84" height="3.36" rx="1.04" transform="rotate(-30 9.93747 20.2207)" fill="#F15152" stroke="#0E1821" stroke-width="0.48"/>
<path d="M24.5519 13.6939L23.9245 12.6071C23.7478 12.301 23.8526 11.9096 24.1587 11.7329L26.7915 10.2129C27.0976 10.0361 27.489 10.141 27.6657 10.4471L28.2932 11.5339C28.378 11.6809 28.401 11.8556 28.3571 12.0195L27.8008 14.0959C27.7093 14.4373 27.3583 14.6399 27.0169 14.5484L24.9406 13.9921C24.7766 13.9482 24.6368 13.8409 24.5519 13.6939Z" fill="white" stroke="#0E1821" stroke-width="0.48"/>
<path d="M5.43364 24.7399L4.80267 23.647C4.62593 23.3409 4.73081 22.9495 5.03692 22.7728L7.53108 21.3328C7.83718 21.156 8.2286 21.2609 8.40533 21.567L9.03631 22.6599C9.11909 22.8033 9.14308 22.9732 9.10326 23.1339L8.60387 25.1489C8.51657 25.5012 8.15412 25.7104 7.80539 25.6099L5.81062 25.0349C5.65154 24.989 5.51642 24.8833 5.43364 24.7399Z" fill="white" stroke="#0E1821" stroke-width="0.48"/>
<path d="M30.1327 7.35998L1.03424 24.16C0.728129 24.3367 0.623249 24.7281 0.79998 25.0342C0.976712 25.3403 1.36813 25.4452 1.67424 25.2685L2.46384 24.8126C3.14339 24.4203 3.87892 24.1341 4.64494 23.964L4.78913 23.932C5.65072 23.7407 6.478 23.4188 7.24233 22.9775L26.0046 12.1451C26.7689 11.7038 27.4613 11.1483 28.0578 10.4978L28.1576 10.389C28.6879 9.81061 29.3035 9.31671 29.9831 8.92437L30.7727 8.46849C31.0788 8.29176 31.1837 7.90034 31.0069 7.59424C30.8302 7.28813 30.4388 7.18325 30.1327 7.35998Z" fill="#4878A6" stroke="#0E1821" stroke-width="0.48"/>
<circle cx="28.3804" cy="16.008" r="1.36157" transform="rotate(-30 28.3804 16.008)" fill="white"/>
<mask id="path-7-inside-1_217_8855" fill="white">
<path d="M31.2442 14.3547C32.1573 15.9363 31.6154 17.9586 30.0338 18.8717C28.4523 19.7848 26.43 19.2429 25.5169 17.6614C24.6037 16.0798 25.1456 14.0575 26.7272 13.1444C28.3087 12.2313 30.3311 12.7732 31.2442 14.3547ZM27.4487 16.546C27.7458 17.0606 28.4039 17.237 28.9185 16.9398C29.4331 16.6427 29.6094 15.9847 29.3123 15.4701C29.0152 14.9555 28.3572 14.7791 27.8425 15.0763C27.3279 15.3734 27.1516 16.0314 27.4487 16.546Z"/>
</mask>
<path d="M31.2442 14.3547C32.1573 15.9363 31.6154 17.9586 30.0338 18.8717C28.4523 19.7848 26.43 19.2429 25.5169 17.6614C24.6037 16.0798 25.1456 14.0575 26.7272 13.1444C28.3087 12.2313 30.3311 12.7732 31.2442 14.3547ZM27.4487 16.546C27.7458 17.0606 28.4039 17.237 28.9185 16.9398C29.4331 16.6427 29.6094 15.9847 29.3123 15.4701C29.0152 14.9555 28.3572 14.7791 27.8425 15.0763C27.3279 15.3734 27.1516 16.0314 27.4487 16.546Z" fill="#0E1821" stroke="#0E1821" stroke-width="0.96" mask="url(#path-7-inside-1_217_8855)"/>
<circle cx="9.17708" cy="27.0952" r="1.36157" transform="rotate(-30 9.17708 27.0952)" fill="white"/>
<mask id="path-9-inside-2_217_8855" fill="white">
<path d="M12.0408 25.4419C12.9539 27.0234 12.412 29.0458 10.8305 29.9589C9.24893 30.872 7.2266 30.3301 6.31349 28.7485C5.40038 27.167 5.94226 25.1447 7.52381 24.2316C9.10537 23.3184 11.1277 23.8603 12.0408 25.4419ZM8.24535 27.6332C8.54247 28.1478 9.2005 28.3241 9.71512 28.027C10.2297 27.7299 10.4061 27.0719 10.1089 26.5572C9.81183 26.0426 9.15379 25.8663 8.63918 26.1634C8.12456 26.4605 7.94824 27.1186 8.24535 27.6332Z"/>
</mask>
<path d="M12.0408 25.4419C12.9539 27.0234 12.412 29.0458 10.8305 29.9589C9.24893 30.872 7.2266 30.3301 6.31349 28.7485C5.40038 27.167 5.94226 25.1447 7.52381 24.2316C9.10537 23.3184 11.1277 23.8603 12.0408 25.4419ZM8.24535 27.6332C8.54247 28.1478 9.2005 28.3241 9.71512 28.027C10.2297 27.7299 10.4061 27.0719 10.1089 26.5572C9.81183 26.0426 9.15379 25.8663 8.63918 26.1634C8.12456 26.4605 7.94824 27.1186 8.24535 27.6332Z" fill="#0E1821" stroke="#0E1821" stroke-width="0.96" mask="url(#path-9-inside-2_217_8855)"/>
<circle cx="9.12011" cy="8.32006" r="5.52" fill="white" stroke="#0E1821" stroke-width="0.48"/>
<path d="M7.85037 4.50303C7.86597 4.45016 7.89834 4.40374 7.94264 4.37074C7.98695 4.33773 8.04079 4.31991 8.09611 4.31995H10.144C10.1845 4.31998 10.2245 4.3296 10.2605 4.34802C10.2966 4.36644 10.3278 4.39313 10.3515 4.42589C10.3752 4.45866 10.3907 4.49656 10.3968 4.53648C10.403 4.5764 10.3995 4.61719 10.3867 4.65551L9.47535 7.37976H11.4239C11.4718 7.37973 11.5188 7.39311 11.5595 7.41837C11.6002 7.44363 11.6329 7.47976 11.654 7.52265C11.6751 7.56554 11.6836 7.61346 11.6787 7.66096C11.6738 7.70845 11.6556 7.75362 11.6261 7.79131L8.04235 12.381C8.00564 12.4283 7.95344 12.4612 7.89486 12.474C7.83627 12.4868 7.77503 12.4787 7.72182 12.4512C7.66861 12.4236 7.6268 12.3783 7.6037 12.3232C7.58059 12.268 7.57766 12.2066 7.59541 12.1495L8.51746 9.16466H6.81619C6.77639 9.16468 6.73714 9.15546 6.70154 9.13773C6.66595 9.12 6.635 9.09424 6.61114 9.06251C6.58729 9.03078 6.57119 8.99394 6.56412 8.95493C6.55706 8.91592 6.55922 8.8758 6.57045 8.83777L7.85037 4.50303ZM8.28759 4.82992L7.15819 8.65469H8.86406C8.90412 8.65468 8.94362 8.66404 8.97939 8.68201C9.01516 8.69998 9.0462 8.72606 9.07 8.75816C9.0938 8.79025 9.10971 8.82746 9.11645 8.8668C9.12319 8.90614 9.12056 8.9465 9.10878 8.98464L8.49544 10.97L10.9007 7.88973H9.12004C9.07951 7.8897 9.03955 7.88008 9.00348 7.86166C8.9674 7.84324 8.93623 7.81655 8.91254 7.78379C8.88884 7.75102 8.8733 7.71312 8.86718 7.6732C8.86107 7.63328 8.86456 7.59249 8.87737 7.55417L9.78867 4.82992H8.28759Z" fill="#F15152"/>
</g>
<defs>
<clipPath id="clip0_217_8855">
<rect width="32" height="32" fill="white"/>
</clipPath>
</defs>
</svg>
