<svg width="32" height="32" viewBox="0 0 32 32" fill="none" xmlns="http://www.w3.org/2000/svg">
<path d="M0.959834 18.4037H8.80143H10.0017V23.4447H9.20151C8.05252 23.4447 7.12109 22.5133 7.12109 21.3643C7.12109 20.7898 6.65537 20.3241 6.08087 20.3241H1.76C1.05293 20.3241 0.479736 19.7509 0.479736 19.0438V18.8838C0.479736 18.6186 0.694684 18.4037 0.959834 18.4037Z" fill="#2A5275" stroke="#0E1821" stroke-width="0.480098" stroke-linecap="round" stroke-linejoin="round"/>
<path d="M31.0463 18.4037H23.2047H22.0044V23.4447H22.8046C23.9536 23.4447 24.885 22.5133 24.885 21.3643C24.885 20.7898 25.3507 20.3241 25.9252 20.3241H30.2461C30.9532 20.3241 31.5264 19.7509 31.5264 19.0438V18.8838C31.5264 18.6186 31.3114 18.4037 31.0463 18.4037Z" fill="#2A5275" stroke="#0E1821" stroke-width="0.480098" stroke-linecap="round" stroke-linejoin="round"/>
<rect x="13.6031" y="16.7233" width="4.80098" height="13.6028" rx="2.40049" fill="#0E1821" stroke="#0E1821" stroke-width="0.480098"/>
<path d="M10.9624 25.6052C9.73514 23.0583 8.72192 19.2833 8.72192 15.509C8.72192 7.6507 11.982 1.28027 16.0034 1.28027C20.0249 1.28027 23.2849 7.6507 23.2849 15.509C23.2849 19.3749 22.3249 23.0408 21.0444 25.6052" stroke="#0E1821" stroke-width="0.480098"/>
<path d="M8.6419 15.5231C8.6419 10.7236 9.91931 6.50949 11.8426 3.9891V25.125C11.8426 25.4344 11.5918 25.6851 11.2824 25.6851C11.0752 25.6851 10.8891 25.5753 10.7972 25.4003C9.46858 22.8702 8.6419 19.3832 8.6419 15.5231Z" fill="#4878A6" stroke="#0E1821" stroke-width="0.480098"/>
<path d="M20.1646 25.125V3.9891C22.0879 6.50949 23.3653 10.7236 23.3653 15.5231C23.3653 19.3832 22.5386 22.8702 21.21 25.4003C21.1181 25.5753 20.932 25.6851 20.7247 25.6851C20.4154 25.6851 20.1646 25.4344 20.1646 25.125Z" fill="#4878A6" stroke="#0E1821" stroke-width="0.480098"/>
<path d="M14.8135 6.26442C14.8291 6.21154 14.8615 6.16511 14.9058 6.1321C14.9501 6.09909 15.004 6.08127 15.0593 6.0813H17.1076C17.1481 6.08133 17.1881 6.09095 17.2242 6.10938C17.2603 6.1278 17.2914 6.15449 17.3151 6.18727C17.3388 6.22004 17.3544 6.25795 17.3605 6.29788C17.3666 6.3378 17.3631 6.37861 17.3503 6.41693L16.4388 9.14174H18.3878C18.4357 9.14171 18.4827 9.15508 18.5234 9.18035C18.5641 9.20562 18.5968 9.24176 18.6179 9.28465C18.639 9.32755 18.6476 9.37548 18.6426 9.42299C18.6377 9.4705 18.6195 9.51567 18.59 9.55337L15.0055 14.144C14.9688 14.1913 14.9166 14.2242 14.858 14.237C14.7994 14.2498 14.7382 14.2418 14.6849 14.2142C14.6317 14.1866 14.5899 14.1413 14.5668 14.0862C14.5437 14.031 14.5408 13.9695 14.5585 13.9125L15.4807 10.927H13.7791C13.7393 10.927 13.7001 10.9178 13.6645 10.9001C13.6289 10.8823 13.5979 10.8566 13.574 10.8248C13.5502 10.7931 13.5341 10.7562 13.527 10.7172C13.5199 10.6782 13.5221 10.6381 13.5333 10.6L14.8135 6.26442ZM15.2508 6.59137L14.1212 10.4169H15.8274C15.8675 10.4169 15.907 10.4263 15.9428 10.4442C15.9785 10.4622 16.0096 10.4883 16.0334 10.5204C16.0572 10.5525 16.0731 10.5897 16.0799 10.6291C16.0866 10.6684 16.084 10.7088 16.0722 10.7469L15.4587 12.7327L17.8644 9.65181H16.0835C16.0429 9.65178 16.0029 9.64216 15.9669 9.62374C15.9308 9.60531 15.8996 9.57862 15.8759 9.54584C15.8522 9.51307 15.8367 9.47516 15.8305 9.43523C15.8244 9.39531 15.8279 9.3545 15.8407 9.31618L16.7522 6.59137H15.2508Z" fill="#F15152"/>
</svg>
