<svg width="32" height="32" viewBox="0 0 32 32" fill="none" xmlns="http://www.w3.org/2000/svg">
<rect x="2.32037" y="24.4047" width="27.6856" height="2.56052" rx="1.28026" fill="#2A5275" stroke="#0E1821" stroke-width="0.480098"/>
<path d="M4.56085 26.9651H9.84192V29.7657C9.84192 30.2518 9.44785 30.6459 8.96174 30.6459H5.44103C4.95492 30.6459 4.56085 30.2518 4.56085 29.7657V26.9651Z" fill="#0E1821" stroke="#0E1821" stroke-width="0.480098"/>
<path d="M22.4844 26.9651H27.7655V29.7657C27.7655 30.2518 27.3714 30.6459 26.8853 30.6459H23.3646C22.8785 30.6459 22.4844 30.2518 22.4844 29.7657V26.9651Z" fill="#0E1821" stroke="#0E1821" stroke-width="0.480098"/>
<path d="M2.96051 19.3637C2.96051 17.5519 4.42931 16.0831 6.24117 16.0831H26.0852C27.8971 16.0831 29.3659 17.5519 29.3659 19.3637V22.8844C29.3659 23.7241 28.6852 24.4048 27.8456 24.4048H4.48082C3.64118 24.4048 2.96051 23.7241 2.96051 22.8844V19.3637Z" fill="#4878A6" stroke="#0E1821" stroke-width="0.480098"/>
<path d="M22.2325 8.32141H10.0937C8.66425 8.32141 7.40812 9.26924 7.01588 10.6438L5.44092 16.163H26.8853L25.3103 10.6438C24.9181 9.26924 23.6619 8.32141 22.2325 8.32141Z" fill="#4878A6" stroke="#0E1821" stroke-width="0.480098" stroke-linecap="round" stroke-linejoin="round"/>
<path d="M22.8629 10.1619H9.46325C9.11644 10.1619 8.80911 10.3853 8.70212 10.7152L6.96118 16.0831H25.3649L23.624 10.7152C23.517 10.3853 23.2097 10.1619 22.8629 10.1619Z" fill="white" stroke="#0E1821" stroke-width="0.480098" stroke-linecap="round" stroke-linejoin="round"/>
<path d="M6.3006 13.2825H5.60103C3.47983 13.2825 1.76025 11.5629 1.76025 9.4417V6.72115C1.76025 4.59995 3.47983 2.88037 5.60103 2.88037H24.4849" stroke="#0E1821" stroke-width="0.480098"/>
<path d="M25.205 2.16009L25.205 3.60039L24.4849 3.60039C24.3523 3.60039 24.2448 3.49291 24.2448 3.36034L24.2448 2.40014C24.2448 2.26757 24.3523 2.16009 24.4849 2.16009L25.205 2.16009Z" fill="#F15152" stroke="#0E1821" stroke-width="0.480098"/>
<path d="M27.4457 1.35992L27.4457 4.40054L25.4453 4.40054C25.3128 4.40054 25.2053 4.29307 25.2053 4.16049L25.2053 1.59997C25.2053 1.4674 25.3128 1.35992 25.4453 1.35992L27.4457 1.35992Z" fill="#F15152" stroke="#0E1821" stroke-width="0.480098"/>
<line x1="27.7654" y1="2.00019" x2="28.7256" y2="2.00019" stroke="#0E1821" stroke-width="0.480098" stroke-linecap="round"/>
<line x1="27.7654" y1="3.76044" x2="28.7256" y2="3.76044" stroke="#0E1821" stroke-width="0.480098" stroke-linecap="round"/>
<circle cx="7.12113" cy="20.7238" r="2.24046" fill="#FBB13C" stroke="#0E1821" stroke-width="0.480098"/>
<circle cx="25.2051" cy="20.7238" r="2.24046" fill="#FBB13C" stroke="#0E1821" stroke-width="0.480098"/>
<path d="M15.2903 17.7291C15.3011 17.6928 15.3233 17.6609 15.3538 17.6383C15.3843 17.6156 15.4213 17.6034 15.4593 17.6034H16.8675C16.8954 17.6034 16.9229 17.61 16.9477 17.6227C16.9725 17.6353 16.9939 17.6536 17.0102 17.6761C17.0265 17.6986 17.0372 17.7246 17.0414 17.752C17.0456 17.7794 17.0432 17.8074 17.0344 17.8337L16.4077 19.7037H17.7476C17.7806 19.7037 17.8129 19.7129 17.8409 19.7302C17.8689 19.7475 17.8914 19.7723 17.9059 19.8018C17.9204 19.8312 17.9262 19.8641 17.9229 19.8967C17.9195 19.9293 17.9069 19.9603 17.8867 19.9862L15.4224 23.1366C15.3971 23.1691 15.3612 23.1917 15.3209 23.2005C15.2807 23.2093 15.2385 23.2037 15.2019 23.1848C15.1654 23.1659 15.1366 23.1348 15.1207 23.0969C15.1048 23.0591 15.1028 23.0169 15.115 22.9777L15.7491 20.9289H14.5792C14.5518 20.9289 14.5248 20.9226 14.5004 20.9104C14.4759 20.8982 14.4546 20.8805 14.4382 20.8588C14.4218 20.837 14.4107 20.8117 14.4059 20.7849C14.401 20.7581 14.4025 20.7306 14.4102 20.7045L15.2903 17.7291ZM15.591 17.9534L14.8144 20.5788H15.9874C16.0149 20.5788 16.0421 20.5852 16.0667 20.5976C16.0913 20.6099 16.1126 20.6278 16.129 20.6498C16.1454 20.6719 16.1563 20.6974 16.161 20.7244C16.1656 20.7514 16.1638 20.7791 16.1557 20.8053L15.7339 22.168L17.3879 20.0537H16.1634C16.1355 20.0537 16.1081 20.0471 16.0833 20.0345C16.0585 20.0218 16.037 20.0035 16.0207 19.981C16.0044 19.9585 15.9937 19.9325 15.9895 19.9051C15.9853 19.8777 15.9877 19.8497 15.9966 19.8234L16.6232 17.9534H15.591Z" fill="white"/>
</svg>
