<svg width="32" height="32" viewBox="0 0 32 32" fill="none" xmlns="http://www.w3.org/2000/svg">
<path d="M24.6897 23.2157H16.5288V20.6932H20.692C21.7526 20.6932 22.6124 19.8335 22.6124 18.7729V9.11963H24.6897V23.2157Z" fill="#4878A6" stroke="#0E1821" stroke-width="0.480098" stroke-linecap="round" stroke-linejoin="round"/>
<path d="M30.8407 20.679C30.1957 16.907 26.5364 15.8939 24.6895 15.8708V21.3609H30.2359C30.6067 21.3609 30.9032 21.0444 30.8407 20.679Z" fill="#4878A6" stroke="#0E1821" stroke-width="0.480098" stroke-linecap="round" stroke-linejoin="round"/>
<path d="M12.9676 23.8836C12.9676 26.0962 11.1739 27.8898 8.96133 27.8898C6.74874 27.8898 4.95508 26.0962 4.95508 23.8836C4.95508 21.671 6.74874 19.8773 8.96133 19.8773C11.1739 19.8773 12.9676 21.671 12.9676 23.8836ZM6.88814 23.8836C6.88814 25.0286 7.81634 25.9568 8.96133 25.9568C10.1063 25.9568 11.0345 25.0286 11.0345 23.8836C11.0345 22.7386 10.1063 21.8104 8.96133 21.8104C7.81634 21.8104 6.88814 22.7386 6.88814 23.8836Z" fill="#0E1821"/>
<circle cx="8.96105" cy="23.8834" r="1.98565" fill="white" stroke="#0E1821" stroke-width="0.480098"/>
<circle cx="8.96133" cy="23.8836" r="3.7662" stroke="#0E1821" stroke-width="0.480098"/>
<path d="M30.7735 23.8836C30.7735 26.0962 28.9798 27.8898 26.7672 27.8898C24.5546 27.8898 22.761 26.0962 22.761 23.8836C22.761 21.671 24.5546 19.8773 26.7672 19.8773C28.9798 19.8773 30.7735 21.671 30.7735 23.8836ZM24.6941 23.8836C24.6941 25.0286 25.6222 25.9568 26.7672 25.9568C27.9122 25.9568 28.8404 25.0286 28.8404 23.8836C28.8404 22.7386 27.9122 21.8104 26.7672 21.8104C25.6222 21.8104 24.6941 22.7386 24.6941 23.8836Z" fill="#0E1821"/>
<circle cx="26.7667" cy="23.8834" r="1.98565" fill="white" stroke="#0E1821" stroke-width="0.480098"/>
<circle cx="26.7672" cy="23.8836" r="3.7662" stroke="#0E1821" stroke-width="0.480098"/>
<line x1="1.04034" y1="27.6496" x2="31.1265" y2="27.6496" stroke="#0E1821" stroke-width="0.480098" stroke-linecap="round"/>
<circle cx="2.28409" cy="16.9097" r="1.24375" fill="#FBB13C" stroke="#0E1821" stroke-width="0.480098"/>
<path d="M2.2276 18.8582C2.2276 16.0299 4.52037 13.7371 7.34864 13.7371H16.5855V23.1985H2.78771C2.47837 23.1985 2.2276 22.9477 2.2276 22.6383V18.8582Z" fill="#2A5275" stroke="#0E1821" stroke-width="0.480098"/>
<path d="M3.71124 20.8405C3.71124 19.2938 4.9651 18.04 6.51181 18.04H13.2961C14.0474 18.04 14.6564 18.649 14.6564 19.4003V23.1983H3.71124V20.8405Z" fill="#4878A6" stroke="#0E1821" stroke-width="0.480098"/>
<path d="M3.41461 12.6068C3.41461 12.0018 3.90502 11.5114 4.50998 11.5114H12.0032H16.232C16.8369 11.5114 17.3273 12.0018 17.3273 12.6068C17.3273 13.2117 16.8369 13.7021 16.232 13.7021H12.0032H4.50998C3.90502 13.7021 3.41461 13.2117 3.41461 12.6068Z" fill="#F15152" stroke="#0E1821" stroke-width="0.480098"/>
<path d="M20.1815 6.67132C20.1815 5.32884 21.2698 4.24054 22.6122 4.24054H26.2285C26.803 4.24054 27.2687 4.70626 27.2687 5.28075V8.0619C27.2687 8.63639 26.803 9.10211 26.2285 9.10211H22.6122C21.2698 9.10211 20.1815 8.01381 20.1815 6.67132Z" fill="#4878A6" stroke="#0E1821" stroke-width="0.480098"/>
<rect x="17.3621" y="6.0213" width="6.49375" height="1.7456" rx="0.872799" fill="#2A5275" stroke="#0E1821" stroke-width="0.480098"/>
<path d="M28.8832 4.98227L27.287 5.54766L27.2811 7.87726L28.8918 8.14121L28.8832 4.98227Z" fill="#4878A6" stroke="#0E1821" stroke-width="0.480098" stroke-linecap="round" stroke-linejoin="round"/>
<circle cx="29.059" cy="6.66512" r="0.964468" transform="rotate(9.30666 29.059 6.66512)" fill="#FBB13C" stroke="#0E1821" stroke-width="0.480098"/>
</svg>
