<svg width="32" height="32" viewBox="0 0 32 32" fill="none" xmlns="http://www.w3.org/2000/svg">
<path d="M8.80216 25.6048C8.80216 27.9912 6.86763 29.9257 4.48128 29.9257C2.09492 29.9257 0.1604 27.9912 0.1604 25.6048C0.1604 23.2185 2.09492 21.2839 4.48128 21.2839C6.86763 21.2839 8.80216 23.2185 8.80216 25.6048ZM2.24528 25.6048C2.24528 26.8397 3.24637 27.8408 4.48128 27.8408C5.71619 27.8408 6.71728 26.8397 6.71728 25.6048C6.71728 24.3699 5.71619 23.3688 4.48128 23.3688C3.24637 23.3688 2.24528 24.3699 2.24528 25.6048Z" fill="#0E1821"/>
<circle cx="4.4813" cy="25.605" r="2.16044" stroke="#0E1821" stroke-width="0.480098"/>
<circle cx="4.48128" cy="25.6048" r="4.08083" stroke="#0E1821" stroke-width="0.480098"/>
<path d="M31.8466 25.6048C31.8466 27.9912 29.9121 29.9257 27.5257 29.9257C25.1394 29.9257 23.2048 27.9912 23.2048 25.6048C23.2048 23.2185 25.1394 21.2839 27.5257 21.2839C29.9121 21.2839 31.8466 23.2185 31.8466 25.6048ZM25.2897 25.6048C25.2897 26.8397 26.2908 27.8408 27.5257 27.8408C28.7606 27.8408 29.7617 26.8397 29.7617 25.6048C29.7617 24.3699 28.7606 23.3688 27.5257 23.3688C26.2908 23.3688 25.2897 24.3699 25.2897 25.6048Z" fill="#0E1821"/>
<circle cx="27.526" cy="25.605" r="2.16044" stroke="#0E1821" stroke-width="0.480098"/>
<circle cx="27.5257" cy="25.6048" r="4.08083" stroke="#0E1821" stroke-width="0.480098"/>
<path d="M22.245 22.5645H10.4026L10.6426 25.6851H19.6845L22.245 22.5645Z" fill="#F15152" stroke="#0E1821" stroke-width="0.480098" stroke-linecap="round" stroke-linejoin="round"/>
<path d="M4.83387 18.6513L4.84419 18.6528L4.85461 18.6533C8.18285 18.8292 10.8918 21.3433 11.3682 24.5832C11.4285 24.9937 11.0867 25.3649 10.6225 25.3649C10.179 25.3649 9.79183 24.9949 9.68813 24.5027C9.18052 22.0933 7.04329 20.2844 4.48288 20.2836L1.684 20.2438L1.684 20.2438H1.68059C1.23867 20.2438 0.88043 19.8856 0.88043 19.4437C0.88043 19.0017 1.23867 18.6435 1.68059 18.6435H4.72121C4.75957 18.6435 4.79718 18.6462 4.83387 18.6513Z" fill="#2A5275" stroke="#0E1821" stroke-width="0.480098"/>
<path d="M23.2929 3.96036L23.2591 3.76042H23.0563L21.3648 3.76042V2.6402H24.0053C24.1045 2.6402 24.1902 2.70046 24.2267 2.78696L25.471 10.007L24.3499 10.197L23.2929 3.96036Z" fill="#4878A6" stroke="#0E1821" stroke-width="0.480098"/>
<mask id="path-10-inside-1_121_3780" fill="white">
<path fill-rule="evenodd" clip-rule="evenodd" d="M26.5002 16.3562C26.0009 15.9982 25.306 16.1127 24.948 16.612L19.3033 24.4846L4.64098 24.4846C4.02229 24.4846 3.52075 24.9861 3.52075 25.6048C3.52075 26.2235 4.02229 26.725 4.64098 26.725H19.8441C20.1749 26.725 20.4722 26.5816 20.6773 26.3536C20.7266 26.3065 20.7722 26.2542 20.8133 26.1968L26.7561 17.9084C27.1141 17.4091 26.9995 16.7142 26.5002 16.3562Z"/>
</mask>
<path fill-rule="evenodd" clip-rule="evenodd" d="M26.5002 16.3562C26.0009 15.9982 25.306 16.1127 24.948 16.612L19.3033 24.4846L4.64098 24.4846C4.02229 24.4846 3.52075 24.9861 3.52075 25.6048C3.52075 26.2235 4.02229 26.725 4.64098 26.725H19.8441C20.1749 26.725 20.4722 26.5816 20.6773 26.3536C20.7266 26.3065 20.7722 26.2542 20.8133 26.1968L26.7561 17.9084C27.1141 17.4091 26.9995 16.7142 26.5002 16.3562Z" fill="#4878A6"/>
<path d="M24.948 16.612L24.5578 16.3323V16.3323L24.948 16.612ZM26.5002 16.3562L26.78 15.966L26.5002 16.3562ZM19.3033 24.4846V24.9647H19.5498L19.6935 24.7643L19.3033 24.4846ZM4.64098 24.4846V24.0045V24.4846ZM20.6773 26.3536L20.3455 26.0066L20.3324 26.0191L20.3203 26.0326L20.6773 26.3536ZM20.8133 26.1968L20.4232 25.917L20.4232 25.917L20.8133 26.1968ZM26.7561 17.9084L27.1462 18.1882L27.1462 18.1882L26.7561 17.9084ZM25.3381 16.8918C25.5416 16.6079 25.9367 16.5428 26.2205 16.7463L26.78 15.966C26.0652 15.4535 25.0703 15.6175 24.5578 16.3323L25.3381 16.8918ZM19.6935 24.7643L25.3381 16.8918L24.5578 16.3323L18.9131 24.2048L19.6935 24.7643ZM4.64098 24.9647L19.3033 24.9647V24.0045L4.64098 24.0045V24.9647ZM4.00085 25.6048C4.00085 25.2513 4.28745 24.9647 4.64098 24.9647V24.0045C3.75714 24.0045 3.04065 24.721 3.04065 25.6048H4.00085ZM4.64098 26.2449C4.28745 26.2449 4.00085 25.9583 4.00085 25.6048H3.04065C3.04065 26.4886 3.75714 27.2051 4.64098 27.2051V26.2449ZM19.8441 26.2449H4.64098V27.2051H19.8441V26.2449ZM20.3203 26.0326C20.2024 26.1636 20.0331 26.2449 19.8441 26.2449V27.2051C20.3167 27.2051 20.742 26.9996 21.0343 26.6746L20.3203 26.0326ZM20.4232 25.917C20.3994 25.9501 20.3734 25.9799 20.3455 26.0066L21.0091 26.7006C21.0797 26.633 21.1449 26.5582 21.2035 26.4765L20.4232 25.917ZM26.3659 17.6287L20.4232 25.917L21.2035 26.4765L27.1462 18.1882L26.3659 17.6287ZM26.2205 16.7463C26.5043 16.9498 26.5694 17.3449 26.3659 17.6287L27.1462 18.1882C27.6587 17.4734 27.4948 16.4785 26.78 15.966L26.2205 16.7463Z" fill="#0E1821" mask="url(#path-10-inside-1_121_3780)"/>
<rect x="24.0261" y="10.0916" width="1.74476" height="16.4546" rx="0.872381" transform="rotate(-9.61845 24.0261 10.0916)" fill="#4878A6" stroke="#0E1821" stroke-width="0.480098"/>
<rect x="21.3644" y="2.32025" width="1.76036" height="4.64094" rx="0.880179" transform="rotate(90 21.3644 2.32025)" fill="#2A5275" stroke="#0E1821" stroke-width="0.480098"/>
<path d="M26.0058 2.80017L24.4055 3.68035L24.8056 6.16085H26.566L26.0058 2.80017Z" fill="#4878A6" stroke="#0E1821" stroke-width="0.480098" stroke-linecap="round" stroke-linejoin="round"/>
<path fill-rule="evenodd" clip-rule="evenodd" d="M26.4729 5.6006L26.1362 3.58055C26.2456 3.54152 26.3633 3.52026 26.4861 3.52026C27.0606 3.52026 27.5263 3.98598 27.5263 4.56047C27.5263 5.13497 27.0606 5.60069 26.4861 5.60069C26.4817 5.60069 26.4773 5.60066 26.4729 5.6006Z" fill="#FBB13C"/>
<path d="M26.4729 5.6006L26.2361 5.64007L26.2691 5.83814L26.4699 5.84064L26.4729 5.6006ZM26.1362 3.58055L26.0555 3.35448L25.8664 3.42199L25.8994 3.62002L26.1362 3.58055ZM26.7097 5.56114L26.373 3.54109L25.8994 3.62002L26.2361 5.64007L26.7097 5.56114ZM26.2169 3.80662C26.3007 3.77671 26.3912 3.76031 26.4861 3.76031V3.28021C26.3354 3.28021 26.1904 3.30633 26.0555 3.35448L26.2169 3.80662ZM26.4861 3.76031C26.928 3.76031 27.2862 4.11856 27.2862 4.56047H27.7663C27.7663 3.85341 27.1931 3.28021 26.4861 3.28021V3.76031ZM27.2862 4.56047C27.2862 5.00239 26.928 5.36064 26.4861 5.36064V5.84074C27.1931 5.84074 27.7663 5.26754 27.7663 4.56047H27.2862ZM26.4861 5.36064C26.4827 5.36064 26.4793 5.36062 26.4759 5.36057L26.4699 5.84064C26.4753 5.8407 26.4807 5.84074 26.4861 5.84074V5.36064Z" fill="#0E1821"/>
<circle cx="16.0034" cy="15.2029" r="5.52112" fill="white" stroke="#0E1821" stroke-width="0.480098"/>
<path d="M14.7334 11.3853C14.749 11.3324 14.7814 11.286 14.8257 11.253C14.87 11.2199 14.9239 11.2021 14.9792 11.2021H17.0275C17.0681 11.2022 17.108 11.2118 17.1441 11.2302C17.1802 11.2486 17.2114 11.2753 17.2351 11.3081C17.2588 11.3409 17.2743 11.3788 17.2804 11.4187C17.2865 11.4587 17.2831 11.4995 17.2702 11.5378L16.3588 14.2626H18.3077C18.3556 14.2626 18.4026 14.2759 18.4433 14.3012C18.484 14.3265 18.5168 14.3626 18.5378 14.4055C18.5589 14.4484 18.5675 14.4963 18.5626 14.5438C18.5576 14.5913 18.5394 14.6365 18.51 14.6742L14.9255 19.2649C14.8887 19.3121 14.8365 19.345 14.7779 19.3579C14.7193 19.3707 14.6581 19.3626 14.6049 19.335C14.5516 19.3075 14.5098 19.2622 14.4867 19.207C14.4636 19.1519 14.4607 19.0904 14.4784 19.0333L15.4007 16.0478H13.6991C13.6593 16.0479 13.62 16.0386 13.5844 16.0209C13.5488 16.0032 13.5178 15.9774 13.494 15.9457C13.4701 15.9139 13.454 15.8771 13.4469 15.8381C13.4399 15.7991 13.442 15.7589 13.4533 15.7209L14.7334 11.3853ZM15.1707 11.7122L14.0411 15.5378H15.7473C15.7874 15.5378 15.8269 15.5471 15.8627 15.5651C15.8985 15.5831 15.9295 15.6092 15.9533 15.6413C15.9771 15.6734 15.993 15.7106 15.9998 15.7499C16.0065 15.7893 16.0039 15.8296 15.9921 15.8678L15.3787 17.8535L17.7844 14.7727H16.0034C15.9628 14.7726 15.9229 14.763 15.8868 14.7446C15.8507 14.7262 15.8195 14.6995 15.7958 14.6667C15.7721 14.6339 15.7566 14.596 15.7505 14.5561C15.7443 14.5162 15.7478 14.4754 15.7607 14.437L16.6721 11.7122H15.1707Z" fill="#F15152"/>
</svg>
