<svg width="32" height="32" viewBox="0 0 32 32" fill="none" xmlns="http://www.w3.org/2000/svg">
<path d="M3.60064 15.2029C3.60064 8.35315 9.15344 2.80035 16.0032 2.80035C22.8529 2.80035 28.4057 8.35315 28.4057 15.2029V19.8438V21.0441C28.4057 21.6186 27.94 22.0843 27.3655 22.0843H26.9654V19.8438V16.0484C26.9654 9.55143 22.5224 4.24064 16.0032 4.24064C9.48393 4.24064 5.04094 9.55143 5.04094 16.0484V19.7638V22.0843H4.64086C4.06636 22.0843 3.60064 21.6186 3.60064 21.0441V19.7638V15.2029Z" fill="#4878A6" stroke="#0E1821" stroke-width="0.480098"/>
<path d="M4.88019 19.2803C4.88019 18.3965 5.59668 17.68 6.48051 17.68H8.08014V25.84H6.48051C5.59667 25.84 4.88019 25.1235 4.88019 24.2397V19.2803Z" fill="#4878A6" stroke="#0E1821" stroke-width="0.480098"/>
<path d="M27.1203 19.2803C27.1203 18.3965 26.4038 17.68 25.52 17.68H23.9204V25.84H25.52C26.4038 25.84 27.1203 25.1235 27.1203 24.2397V19.2803Z" fill="#4878A6" stroke="#0E1821" stroke-width="0.480098"/>
<rect x="7.12018" y="16.0801" width="4.31997" height="11.3601" rx="2.15998" fill="#2A5275" stroke="#0E1821" stroke-width="0.480098"/>
<rect x="-0.240049" y="0.240049" width="4.31997" height="11.3601" rx="2.15998" transform="matrix(-1 0 0 1 24.6403 15.8401)" fill="#2A5275" stroke="#0E1821" stroke-width="0.480098"/>
</svg>
