<svg width="32" height="32" viewBox="0 0 32 32" fill="none" xmlns="http://www.w3.org/2000/svg">
<path d="M5.68146 10.962C5.68146 9.85722 6.57707 8.96161 7.68186 8.96161H9.44222C10.547 8.96161 11.4426 9.85722 11.4426 10.962V12.9624H5.68146V10.962Z" fill="#2A5275" stroke="#0E1821" stroke-width="0.480098"/>
<path d="M14.4832 12.4023C14.4832 11.8278 14.9489 11.3621 15.5234 11.3621H16.4836C17.0581 11.3621 17.5238 11.8278 17.5238 12.4023V13.4425H14.4832V12.4023Z" fill="#4878A6" stroke="#0E1821" stroke-width="0.480098"/>
<path d="M20.564 10.962C20.564 9.85722 21.4596 8.96161 22.5644 8.96161H24.3248C25.4296 8.96161 26.3252 9.85722 26.3252 10.962V12.9624H20.564V10.962Z" fill="#2A5275" stroke="#0E1821" stroke-width="0.480098"/>
<path d="M2.24048 26.3765V18.5177C2.24048 14.3731 5.43982 10.2044 9.44194 11.282C10.3587 11.5289 11.2432 12.0727 11.8858 12.5425C12.555 13.0317 13.3459 13.3625 14.1748 13.3625H17.8317C18.6607 13.3625 19.4515 13.0317 20.1207 12.5425C20.7633 12.0727 21.6478 11.5289 22.5646 11.282C26.5667 10.2044 29.7661 14.3731 29.7661 18.5177V26.3765C29.7661 28.5135 28.0337 30.2459 25.8967 30.2459C24.0946 30.2459 22.442 29.2441 21.6085 27.6464L19.764 24.1113C19.3706 23.3572 18.5906 22.8844 17.74 22.8844H14.2665C13.416 22.8844 12.6359 23.3572 12.2425 24.1113L10.3981 27.6464C9.56453 29.2441 7.91192 30.2459 6.10989 30.2459C3.97287 30.2459 2.24048 28.5135 2.24048 26.3765Z" fill="white" stroke="#0E1821" stroke-width="0.480098" stroke-linecap="round" stroke-linejoin="round"/>
<path d="M12.8031 17.5235C12.8031 19.9099 10.8686 21.8444 8.48225 21.8444C6.0959 21.8444 4.16138 19.9099 4.16138 17.5235C4.16138 15.1372 6.0959 13.2026 8.48225 13.2026C10.8686 13.2026 12.8031 15.1372 12.8031 17.5235ZM6.29294 17.5235C6.29294 18.7326 7.27313 19.7128 8.48225 19.7128C9.69138 19.7128 10.6716 18.7326 10.6716 17.5235C10.6716 16.3144 9.69138 15.3342 8.48225 15.3342C7.27313 15.3342 6.29294 16.3144 6.29294 17.5235Z" fill="#2A5275"/>
<circle cx="8.48203" cy="17.5234" r="2.16044" stroke="#0E1821" stroke-width="0.480098"/>
<circle cx="8.48201" cy="17.5234" r="4.40089" stroke="#0E1821" stroke-width="0.480098"/>
<circle cx="20.3244" cy="17.5232" r="1.36028" fill="#F15152" stroke="#0E1821" stroke-width="0.480098"/>
<circle cx="23.4451" cy="20.6439" r="1.36028" transform="rotate(-90 23.4451 20.6439)" fill="#F15152" stroke="#0E1821" stroke-width="0.480098"/>
<circle cx="26.5654" cy="17.5232" r="1.36028" fill="#F15152" stroke="#0E1821" stroke-width="0.480098"/>
<circle cx="23.4451" cy="14.4027" r="1.36028" transform="rotate(-90 23.4451 14.4027)" fill="#F15152" stroke="#0E1821" stroke-width="0.480098"/>
<path d="M16.0034 11.3621V9.52171C16.0034 8.63787 16.7199 7.92138 17.6037 7.92138H20.6044C21.4661 7.92138 22.1647 7.22281 22.1647 6.36107V6.36107C22.1647 5.49933 21.4661 4.80075 20.6044 4.80075H17.6037C16.7199 4.80075 16.0034 4.08426 16.0034 3.20042V1.76013" stroke="#0E1821" stroke-width="0.480098" stroke-linecap="round" stroke-linejoin="round"/>
<line x1="14.9634" y1="16.0829" x2="17.0439" y2="16.0829" stroke="#0E1821" stroke-width="0.480098" stroke-linecap="round"/>
<line x1="14.003" y1="20.884" x2="15.1232" y2="20.884" stroke="#0E1821" stroke-width="0.480098" stroke-linecap="round"/>
<line x1="16.8838" y1="20.884" x2="18.0041" y2="20.884" stroke="#0E1821" stroke-width="0.480098" stroke-linecap="round"/>
</svg>
