<svg width="32" height="32" viewBox="0 0 32 32" fill="none" xmlns="http://www.w3.org/2000/svg">
<rect x="5.84088" y="4.40069" width="20.3241" height="23.0447" rx="3.28067" fill="#4878A6" stroke="#0E1821" stroke-width="0.480098"/>
<rect x="7.76153" y="6.00091" width="16.4834" height="19.684" rx="1.68034" fill="white" stroke="#0E1821" stroke-width="0.480098"/>
<path d="M15.1297 8.12701C15.1404 8.09072 15.1627 8.05886 15.1932 8.03621C15.2236 8.01355 15.2606 8.00132 15.2987 8.00134H16.7069C16.7348 8.00136 16.7622 8.00797 16.787 8.02061C16.8118 8.03325 16.8333 8.05158 16.8496 8.07407C16.8659 8.09656 16.8766 8.12257 16.8808 8.14997C16.885 8.17738 16.8826 8.20538 16.8737 8.23168L16.2471 10.1016H17.587C17.62 10.1016 17.6523 10.1108 17.6802 10.1281C17.7082 10.1455 17.7307 10.1703 17.7452 10.1997C17.7597 10.2292 17.7656 10.2621 17.7622 10.2947C17.7588 10.3273 17.7463 10.3583 17.7261 10.3841L15.2617 13.5346C15.2365 13.567 15.2006 13.5896 15.1603 13.5984C15.12 13.6072 15.0779 13.6017 15.0413 13.5827C15.0047 13.5638 14.976 13.5327 14.9601 13.4949C14.9442 13.457 14.9422 13.4148 14.9544 13.3757L15.5884 11.3268H14.4186C14.3912 11.3268 14.3642 11.3205 14.3397 11.3083C14.3152 11.2962 14.294 11.2785 14.2776 11.2567C14.2612 11.2349 14.2501 11.2096 14.2452 11.1829C14.2404 11.1561 14.2419 11.1285 14.2496 11.1024L15.1297 8.12701ZM15.4303 8.35139L14.6537 10.9768H15.8268C15.8543 10.9768 15.8815 10.9832 15.9061 10.9955C15.9307 11.0079 15.952 11.0258 15.9684 11.0478C15.9847 11.0698 15.9957 11.0954 16.0003 11.1224C16.0049 11.1494 16.0031 11.1771 15.995 11.2033L15.5733 12.566L17.2272 10.4517H16.0028C15.9749 10.4517 15.9474 10.4451 15.9226 10.4324C15.8978 10.4198 15.8764 10.4015 15.8601 10.379C15.8438 10.3565 15.8331 10.3305 15.8289 10.3031C15.8247 10.2757 15.8271 10.2477 15.8359 10.2214L16.4626 8.35139H15.4303Z" fill="#F15152"/>
<circle cx="11.8421" cy="17.6034" r="1.20024" fill="#FBB13C" stroke="#0E1821" stroke-width="0.480098"/>
<circle cx="11.8421" cy="21.7643" r="1.20024" fill="#FBB13C" stroke="#0E1821" stroke-width="0.480098"/>
<circle cx="16.003" cy="17.6034" r="1.20024" fill="#FBB13C" stroke="#0E1821" stroke-width="0.480098"/>
<circle cx="16.003" cy="21.7643" r="1.20024" fill="#FBB13C" stroke="#0E1821" stroke-width="0.480098"/>
<circle cx="20.1639" cy="17.6034" r="1.20024" fill="#FBB13C" stroke="#0E1821" stroke-width="0.480098"/>
<circle cx="20.1639" cy="21.7643" r="1.20024" fill="#FBB13C" stroke="#0E1821" stroke-width="0.480098"/>
<path d="M10.4025 1.52099C10.5183 0.872238 11.0826 0.399839 11.7416 0.399839H20.1041C20.7631 0.399839 21.3273 0.872238 21.4432 1.52099L21.9574 4.40065H9.88827L10.4025 1.52099Z" fill="#2A5275" stroke="#0E1821" stroke-width="0.480098"/>
<path d="M10.4025 30.325C10.5183 30.9737 11.0826 31.4461 11.7416 31.4461H20.1041C20.7631 31.4461 21.3273 30.9737 21.4432 30.325L21.9574 27.4453H9.88827L10.4025 30.325Z" fill="#2A5275" stroke="#0E1821" stroke-width="0.480098"/>
</svg>
